<?xml version="1.0" encoding="utf-8"?>
<!-- Generator: Adobe Illustrator 16.0.0, SVG Export Plug-In . SVG Version: 6.00 Build 0)  -->
<!DOCTYPE svg PUBLIC "-//W3C//DTD SVG 1.1//EN" "http://www.w3.org/Graphics/SVG/1.1/DTD/svg11.dtd">
<svg version="1.1" id="Layer_1" xmlns="http://www.w3.org/2000/svg" xmlns:xlink="http://www.w3.org/1999/xlink" x="0px" y="0px"
	 width="563px" height="150px" viewBox="14.5 84.5 563 150" enable-background="new 14.5 84.5 563 150" xml:space="preserve">
<g>
	<g>
		<path fill="#3E3935" d="M192.886,180.33c0-4.139,0.945-5.087,4.726-4.139c5.792,1.533,11.463,2.246,17.256,2.246
			c8.031,0,10.988-1.297,10.988-5.082c0-2.949-1.537-4.371-7.562-7.094l-12.765-5.671c-8.034-3.428-11.698-7.44-11.698-16.071
			c0-10.987,6.854-16.07,22.57-16.07c4.843,0,9.454,0.595,13.704,1.772c4.137,1.302,4.963,2.01,4.963,5.91v1.415
			c0,4.139-1.06,5.086-4.844,4.019c-4.491-1.299-9.217-1.889-14.062-1.889c-7.684,0-10.397,1.417-10.397,4.842
			c0,2.835,1.417,4.137,5.551,6.029l13.711,5.911c8.622,3.663,12.643,7.798,12.643,16.662c0,11.346-7.205,16.543-23.87,16.543
			c-5.791,0-11.229-0.709-16.189-2.01c-3.896-1.063-4.726-1.889-4.726-5.793L192.886,180.33L192.886,180.33z"/>
		<path fill="#3E3935" d="M265.979,166.621c0,8.035,3.07,11.578,13.588,11.578c10.52,0,13.474-3.543,13.474-11.578V135.07
			c0-4.257,1.064-5.319,5.318-5.319h1.537c4.256,0,5.32,1.064,5.32,5.319v31.551c0,15.24-7.683,23.043-25.648,23.043
			c-17.134,0-25.758-7.686-25.758-23.043V135.07c0-4.257,1.063-5.319,5.315-5.319h1.536c4.258,0,5.318,1.064,5.318,5.319
			L265.979,166.621L265.979,166.621z"/>
		<path fill="#3E3935" d="M321.354,153.619c0-16.898,9.926-25.172,26.944-25.172c18.314,0,27.061,8.036,27.061,25.172v10.287
			c0,17.13-8.152,25.758-24.577,25.758c-8.392,0-14.181-2.6-17.374-7.686v24.703c0,4.252-1.063,5.316-5.314,5.316h-1.423
			c-4.25,0-5.315-1.064-5.315-5.316L321.354,153.619L321.354,153.619z M363.191,153.978c0-9.93-3.076-14.184-14.774-14.184
			c-11.466,0-15.01,4.253-15.01,14.184v10.157c0,9.813,3.309,14.064,15.01,14.064c11.461,0,14.774-4.137,14.774-14.064V153.978z"/>
		<path fill="#3E3935" d="M442.544,158.11c-0.475,4.373-1.651,5.436-6.022,5.436h-32.854v2.599c0,8.625,4.966,12.056,16.895,12.056
			c4.848,0,9.932-0.589,15.367-1.894c3.775-0.943,4.842,0,4.842,4.137v1.537c0,3.896-0.705,4.727-4.842,5.789
			c-4.729,1.299-9.811,1.892-15.367,1.892c-19.851,0-29.067-7.445-29.067-25.289v-10.279c0-17.137,8.743-25.649,26.234-25.649
			c16.424,0,25.048,8.393,25.048,24.465C442.782,154.682,442.661,156.338,442.544,158.11z M403.668,153.619h27.652v-2.957
			c0-7.796-4.611-11.697-13.943-11.697c-9.104,0-13.709,3.901-13.709,11.697V153.619L403.668,153.619z"/>
		<path fill="#3E3935" d="M471.092,183.047c0,4.252-1.064,5.317-5.315,5.317h-1.535c-4.257,0-5.317-1.065-5.317-5.317v-33.679
			c0-13.945,7.444-20.917,22.333-20.917c0.95,0,1.774,0,2.363,0.115c3.9,0.476,4.966,1.419,4.966,5.554v1.655
			c0,3.901-0.827,4.724-4.966,4.135c-0.589-0.117-1.412-0.117-2.363-0.117c-7.917,0-10.161,3.188-10.161,10.4v32.853
			L471.092,183.047L471.092,183.047z"/>
		<path fill="#3E3935" d="M503.569,164.135v-10.157c0-16.551,8.863-25.527,27.179-25.527c18.785,0,26.945,8.505,26.945,25.527
			v10.157c0,16.428-8.865,25.529-26.945,25.529C511.844,189.664,503.569,181.152,503.569,164.135z M545.52,153.978
			c0-9.93-3.307-14.184-14.771-14.184c-11.461,0-15.005,4.253-15.005,14.184v10.157c0,9.813,3.31,14.064,15.005,14.064
			c11.466,0,14.771-4.137,14.771-14.064V153.978z"/>
	</g>
	<g>
		<g>
			<path fill="#EB6852" d="M45.142,158.939c0.844,4.694,2.322,9.2,4.091,13.543c1.169,2.875,8.313,22.106,33.022,28.555
				c0.367,0.097,0.738,0.111,1.086,0.111c3.46,0,4.858-3.64,4.858-5.154c0-2.939-1.747-5.008-5.054-5.979l-0.1-0.027
				c-9.863-3.074-20.564-9.51-28.526-20.688c-4.093-5.745-7.178-12.666-8.857-19.749c-0.128-0.545-0.522-0.794-0.864-0.754
				c-0.34,0.04-0.522,0.187-0.511,1.143C44.32,152.927,44.603,155.937,45.142,158.939z"/>
			<path fill="#EB6852" d="M58.689,148.578c1.563,5.397,5.841,11.945,9.519,16.008c2.444,2.7,9.465,8.475,14.742,10.73
				c0.432,0.185,0.911,0.283,1.385,0.283c1.504,0,3.291-0.983,3.795-3.746c0.456-2.492-0.849-4.699-2.97-5.32
				c-4.691-1.369-11.458-4.813-14.205-7.182c-3.524-3.042-8.047-8.086-10.399-12.105c-0.547-0.936-1.079-1.137-1.658-0.873
				C58.135,146.722,58.469,147.817,58.689,148.578z"/>
			<path fill="#EB6852" d="M27.033,172.677c1.478,8.231,7.883,21.776,10.98,25.909c10.708,14.293,24.723,24.286,43.554,28.125
				c2.668,0.544,4.69-1.271,4.69-1.271c1.281-1.073,2.022-2.674,2.022-4.383c0-1.885-1.554-4.959-4.361-5.584
				c-12.975-2.883-24.838-9.451-34.043-19.248c-3.096-3.291-14.996-16.812-17.618-35.029c-1.338-9.292-1.78-17.933,1.099-27.646
				c0.334-1.128-0.082-1.386-0.287-1.51c-0.131-0.08-0.787-0.105-1.167,0.922c-0.16,0.436-0.38,0.849-0.563,1.276
				C26.224,146.153,24.661,159.481,27.033,172.677z"/>
		</g>
		<g>
			<path fill="#EB6852" d="M132.093,160.49c-0.844-4.694-2.321-9.199-4.091-13.545c-1.169-2.873-8.313-22.104-33.021-28.554
				c-0.368-0.096-0.738-0.11-1.087-0.11c-3.46,0-4.856,3.637-4.856,5.154c0,2.939,1.747,5.006,5.054,5.978l0.099,0.03
				c9.862,3.073,20.563,9.507,28.526,20.686c4.093,5.747,7.178,12.667,8.856,19.748c0.129,0.548,0.523,0.795,0.865,0.755
				c0.339-0.039,0.521-0.187,0.51-1.143C132.915,166.502,132.631,163.492,132.093,160.49z"/>
			<path fill="#EB6852" d="M118.546,170.852c-1.563-5.397-5.841-11.945-9.519-16.008c-2.444-2.702-9.466-8.475-14.741-10.729
				c-0.433-0.187-0.912-0.283-1.387-0.283c-1.504,0-3.291,0.983-3.794,3.746c-0.456,2.492,0.848,4.699,2.97,5.318
				c4.69,1.37,11.458,4.812,14.205,7.183c3.523,3.042,8.048,8.086,10.399,12.105c0.547,0.937,1.079,1.137,1.658,0.873
				C119.1,172.708,118.766,171.611,118.546,170.852z"/>
			<path fill="#EB6852" d="M150.202,146.753c-1.479-8.231-7.884-21.776-10.981-25.91c-10.708-14.292-24.723-24.285-43.554-28.124
				c-2.668-0.544-4.69,1.271-4.69,1.271c-1.28,1.074-2.021,2.675-2.021,4.383c0,1.885,1.553,4.958,4.361,5.583
				c12.975,2.885,24.838,9.455,34.044,19.248c3.095,3.293,14.996,16.813,17.619,35.031c1.337,9.292,1.779,17.933-1.1,27.645
				c-0.333,1.128,0.082,1.386,0.287,1.511c0.131,0.078,0.788,0.105,1.167-0.922c0.161-0.438,0.381-0.852,0.563-1.275
				C151.01,173.275,152.574,159.948,150.202,146.753z"/>
		</g>
	</g>
</g>
<g>
	<g>
		<path fill="#3E3935" d="M565.205,117.472c3.229,0,5.836,2.642,5.836,5.872s-2.605,5.885-5.836,5.885
			c-3.214,0-5.791-2.656-5.791-5.885S561.991,117.472,565.205,117.472z M565.205,128.067c2.545,0,4.55-2.051,4.55-4.724
			c0-2.673-2.005-4.709-4.55-4.709c-2.547,0-4.55,2.036-4.55,4.709C560.656,126.016,562.658,128.067,565.205,128.067z
			 M564.475,126.492h-1.21v-6.396h2.212c1.241,0,2.161,0.876,2.161,2.005c0,0.89-0.57,1.624-1.398,1.894l1.435,2.497h-1.386
			l-1.336-2.386h-0.478V126.492L564.475,126.492z M565.3,123.055c0.718,0,1.116-0.35,1.116-0.938c0-0.619-0.398-0.968-1.116-0.968
			h-0.825v1.907L565.3,123.055L565.3,123.055z"/>
	</g>
</g>
</svg>
